<!-- Modern SVG placeholder for project images -->
<svg width="400" height="250" xmlns="http://www.w3.org/2000/svg">
  <defs>
    <linearGradient id="grad1" x1="0%" y1="0%" x2="100%" y2="100%">
      <stop offset="0%" style="stop-color:#6C63FF;stop-opacity:1" />
      <stop offset="100%" style="stop-color:#00D9FF;stop-opacity:1" />
    </linearGradient>
    <linearGradient id="grad2" x1="0%" y1="0%" x2="100%" y2="100%">
      <stop offset="0%" style="stop-color:#6C63FF;stop-opacity:0.2" />
      <stop offset="100%" style="stop-color:#00D9FF;stop-opacity:0.2" />
    </linearGradient>
  </defs>
  
  <!-- Background -->
  <rect width="100%" height="100%" fill="#f8f9fa"/>
  <rect width="100%" height="100%" fill="url(#grad2)"/>
  
  <!-- Decorative circles -->
  <circle cx="50" cy="50" r="80" fill="url(#grad1)" opacity="0.05"/>
  <circle cx="350" cy="200" r="100" fill="url(#grad1)" opacity="0.05"/>
  
  <!-- Code icon -->
  <g transform="translate(200, 100)">
    <circle cx="0" cy="0" r="45" fill="url(#grad1)" opacity="0.15"/>
    <circle cx="0" cy="0" r="35" fill="url(#grad1)" opacity="0.2"/>
    <!-- Code brackets -->
    <path d="M-15 -12 L-25 0 L-15 12" stroke="#6C63FF" stroke-width="3" fill="none" stroke-linecap="round" stroke-linejoin="round"/>
    <path d="M15 -12 L25 0 L15 12" stroke="#00D9FF" stroke-width="3" fill="none" stroke-linecap="round" stroke-linejoin="round"/>
    <line x1="-5" y1="15" x2="5" y2="-15" stroke="#6C63FF" stroke-width="2" stroke-linecap="round" opacity="0.7"/>
  </g>
  
  <!-- Text -->
  <text x="200" y="175" font-family="system-ui, -apple-system, sans-serif" font-size="14" fill="#6C63FF" text-anchor="middle" font-weight="600">Projet en développement</text>
  <text x="200" y="195" font-family="system-ui, -apple-system, sans-serif" font-size="11" fill="#9CA3AF" text-anchor="middle">🚀 Bientôt disponible</text>
  
  <!-- Decorative dots -->
  <circle cx="100" cy="30" r="3" fill="#6C63FF" opacity="0.3"/>
  <circle cx="120" cy="40" r="2" fill="#00D9FF" opacity="0.4"/>
  <circle cx="300" cy="220" r="4" fill="#6C63FF" opacity="0.3"/>
  <circle cx="320" cy="210" r="2" fill="#00D9FF" opacity="0.4"/>
</svg>
